<svg width="84" height="83" viewBox="0 0 84 83" fill="none" xmlns="http://www.w3.org/2000/svg">
<path fill-rule="evenodd" clip-rule="evenodd" d="M20.0177 15.678C14.298 18.2913 10.109 24.511 10.109 31.9269C10.109 39.5015 13.2119 45.3419 17.6525 50.3479C21.3174 54.4713 25.7512 57.8914 30.0745 61.2219C31.1043 62.0148 32.1213 62.8055 33.1257 63.5939C34.9392 65.0247 36.5562 66.2762 38.118 67.1898C39.6798 68.1034 40.9313 68.5172 42.0001 68.5172C43.0689 68.5172 44.3238 68.1034 45.8822 67.1898C47.444 66.2762 49.0609 65.0247 50.8744 63.5939C51.8788 62.8032 52.8959 62.0137 53.9256 61.2253C58.249 57.888 62.6827 54.4713 66.3476 50.3479C70.7917 45.3419 73.8911 39.5015 73.8911 31.9269C73.8911 24.5144 69.7022 18.2913 63.9825 15.678C58.4248 13.1371 50.9571 13.8094 43.8618 21.1839C43.6206 21.4342 43.3314 21.6333 43.0115 21.7692C42.6917 21.9052 42.3476 21.9753 42.0001 21.9753C41.6525 21.9753 41.3085 21.9052 40.9886 21.7692C40.6687 21.6333 40.3795 21.4342 40.1383 21.1839C33.043 13.8094 25.5753 13.1371 20.0177 15.678ZM42.0001 15.8021C34.029 8.66542 25.103 7.66559 17.8663 10.9719C10.2331 14.4713 4.9375 22.5803 4.9375 31.9304C4.9375 41.1184 8.76443 48.131 13.7877 53.7852C17.8077 58.312 22.7275 62.101 27.0751 65.4453C28.0634 66.2038 29.0127 66.9416 29.9228 67.6587C31.6915 69.0516 33.5877 70.5341 35.5081 71.658C37.4284 72.7819 39.6212 73.6921 42.0001 73.6921C44.379 73.6921 46.5717 72.7785 48.4921 71.658C50.4159 70.5341 52.3086 69.0516 54.0773 67.6587C54.9875 66.9416 55.9368 66.2038 56.9251 65.4453C61.2692 62.101 66.1925 58.3086 70.2124 53.7852C75.2357 48.131 79.0626 41.1184 79.0626 31.9304C79.0626 22.5803 73.7705 14.4713 66.1338 10.9788C58.8972 7.66904 49.9711 8.66887 42.0001 15.8021Z" fill="#DB45AA"/>
</svg>
