<svg width="84" height="84" viewBox="0 0 84 84" fill="none" xmlns="http://www.w3.org/2000/svg">
<path d="M59.7929 1.20623C59.2384 1.20325 58.6913 1.33365 58.1978 1.58644C57.7043 1.83924 57.2787 2.207 56.9571 2.65873L43.5734 21.8525C43.4893 21.9736 43.4376 22.1142 43.4232 22.261C43.4089 22.4077 43.4322 22.5557 43.4911 22.6908C43.5501 22.826 43.6426 22.9438 43.7598 23.0332C43.8771 23.1225 44.0153 23.1803 44.1613 23.2012C47.2852 23.6199 50.2562 24.8082 52.8071 26.6596C52.9593 26.7957 53.1563 26.8709 53.3604 26.8709C53.5646 26.8709 53.7616 26.7957 53.9138 26.6596L58.2021 22.1291C58.6884 21.6434 59.3477 21.3706 60.035 21.3706C60.7224 21.3706 61.3816 21.6434 61.8679 22.1291C62.3476 22.6256 62.6157 23.289 62.6157 23.9794C62.6157 24.6697 62.3476 25.3331 61.8679 25.8296L57.545 30.1179C57.4216 30.2759 57.3546 30.4707 57.3546 30.6712C57.3546 30.8717 57.4216 31.0665 57.545 31.2246C59.3479 33.7982 60.4774 36.7825 60.8304 39.905C60.8518 40.0546 60.9106 40.1964 61.0012 40.3173C61.0919 40.4381 61.2116 40.5342 61.3492 40.5966C61.4806 40.6725 61.6297 40.7125 61.7815 40.7125C61.9333 40.7125 62.0823 40.6725 62.2138 40.5966L81.4421 27.1091C81.8938 26.7875 82.2616 26.362 82.5144 25.8685C82.7672 25.3749 82.8976 24.8278 82.8946 24.2733C82.7909 16.25 67.7471 1.20623 59.7929 1.20623ZM31.0888 57.5771C30.9366 57.441 30.7396 57.3657 30.5354 57.3657C30.3313 57.3657 30.1343 57.441 29.9821 57.5771L24.6563 63.0066C24.1512 63.2938 23.5644 63.4031 22.9898 63.317C22.4153 63.2309 21.8863 62.9543 21.4876 62.5317C21.0889 62.1091 20.8437 61.5649 20.7912 60.9863C20.7386 60.4078 20.8819 59.8283 21.1979 59.3408L26.4892 54.0496C26.6126 53.8915 26.6796 53.6967 26.6796 53.4962C26.6796 53.2957 26.6126 53.1009 26.4892 52.9429C24.6379 50.392 23.4495 47.421 23.0309 44.2971C23.0095 44.1475 22.9507 44.0057 22.8601 43.8848C22.7694 43.7639 22.6497 43.6678 22.5121 43.6054C22.3872 43.529 22.2436 43.4885 22.0971 43.4885C21.9507 43.4885 21.8071 43.529 21.6821 43.6054L2.55753 57.0583C2.1058 57.3799 1.73804 57.8054 1.48525 58.299C1.23246 58.7925 1.10205 59.3396 1.10503 59.8941C1.10503 67.8483 16.1488 82.8921 24.1029 82.8921C24.6575 82.895 25.2046 82.7646 25.6981 82.5118C26.1916 82.259 26.6172 81.8913 26.9388 81.4396L40.3917 62.2112C40.4681 62.0863 40.5085 61.9427 40.5085 61.7962C40.5085 61.6498 40.4681 61.5062 40.3917 61.3812C40.3352 61.2396 40.2408 61.1162 40.1187 61.0247C39.9967 60.9332 39.8519 60.877 39.7 60.8625C36.6037 60.4899 33.6465 59.3616 31.0888 57.5771ZM55.3663 55.4675C53.1103 57.71 50.3279 59.3508 47.2738 60.24C47.1285 60.2805 46.9969 60.3599 46.8934 60.4696C46.7898 60.5792 46.718 60.7151 46.6859 60.8625C46.6518 61.0074 46.6529 61.1583 46.689 61.3026C46.7251 61.447 46.7951 61.5807 46.8934 61.6925L61.5221 76.2866C62.0076 76.7625 62.6226 77.0848 63.2902 77.2131C63.9578 77.3414 64.6484 77.2701 65.2758 77.0081C65.9031 76.7461 66.4393 76.305 66.8173 75.74C67.1954 75.175 67.3985 74.5111 67.4013 73.8312V67.5025H73.73C74.4099 67.4997 75.0738 67.2965 75.6388 66.9185C76.2038 66.5405 76.6449 66.0043 76.9069 65.377C77.1689 64.7496 77.2402 64.059 77.1119 63.3914C76.9836 62.7238 76.6613 62.1088 76.1854 61.6233L61.5567 46.9946C61.4525 46.8845 61.319 46.8065 61.172 46.7697C61.0249 46.733 60.8704 46.739 60.7267 46.7871C60.584 46.8213 60.4536 46.8943 60.3498 46.9981C60.246 47.1018 60.173 47.2323 60.1388 47.375C59.2565 50.4321 57.6147 53.2161 55.3663 55.4675Z" fill="#F34DBD"/>
<path d="M51.7179 32.1463C49.0863 29.6119 45.5872 28.1978 41.9481 28.1978C38.309 28.1978 34.8099 29.6119 32.1783 32.1463C30.8386 33.4274 29.7668 34.9659 29.0261 36.6712C28.2854 38.3765 27.8908 40.2141 27.8656 42.0756C27.8403 43.9371 28.1849 45.7848 28.8791 47.5099C29.5732 49.235 30.6028 50.8026 31.9073 52.1201C33.2118 53.4377 34.7646 54.4786 36.4743 55.1816C38.1841 55.8845 40.0161 56.2352 41.8624 56.213C43.7086 56.1909 45.5318 55.7963 47.2245 55.0525C48.9171 54.3087 50.4449 53.2307 51.7179 51.8822C53.0041 50.5869 54.0244 49.0486 54.7205 47.3554C55.4167 45.6622 55.775 43.8472 55.775 42.0143C55.775 40.1813 55.4167 38.3664 54.7205 36.6731C54.0244 34.9799 53.0041 33.4417 51.7179 32.1463Z" fill="#F34DBD"/>
</svg>
