<svg width="72" height="73" viewBox="0 0 72 73" fill="none" xmlns="http://www.w3.org/2000/svg">
<path d="M61.1248 51.3355C62.8209 51.3355 64.2508 51.9272 65.4144 53.1105C66.578 54.2938 67.15 55.6744 67.1302 57.2522L43.3748 66.1272L22.6665 60.2105V33.5855H28.4352L49.9423 41.5434C51.4806 42.1548 52.2498 43.2593 52.2498 44.8568C52.2498 45.7837 51.9145 46.5923 51.244 47.2826C50.5734 47.9729 49.7254 48.3377 48.6998 48.3772H40.4165L35.2394 46.3951L34.2631 49.1759L40.4165 51.3355H61.1248ZM49.2915 10.5993C51.382 8.17343 54.0445 6.96051 57.279 6.96051C59.9612 6.96051 62.2293 7.94662 64.0831 9.91884C65.937 11.8911 66.9231 14.1591 67.0415 16.723C67.0415 18.7544 66.0554 21.1802 64.0831 24.0005C62.1109 26.8208 60.1683 29.1776 58.2552 31.0709C56.3422 32.9643 53.3543 35.7747 49.2915 39.5022C45.1893 35.7747 42.1718 32.9643 40.239 31.0709C38.3062 29.1776 36.3636 26.8208 34.4111 24.0005C32.4586 21.1802 31.502 18.7544 31.5415 16.723C31.5415 14.0408 32.498 11.7727 34.4111 9.91884C36.3241 8.06495 38.6316 7.07884 41.3336 6.96051C44.4891 6.96051 47.1418 8.17343 49.2915 10.5993ZM4.86914 33.5855H16.7498V66.1272H4.86914V33.5855Z" fill="#F34DBD"/>
</svg>
